<svg xmlns="http://www.w3.org/2000/svg" viewBox="0 0 17.7 17.7"><defs><style>.cls-1{fill:#666}</style></defs><g id="Слой_2" data-name="Слой 2"><g id="Layer_1" data-name="Layer 1"><circle class="cls-1" cx="8.85" cy="8.85" r="2.95"/><path class="cls-1" d="M17.65 5.2a5.26 5.26 0 0 0-1.43-3.71A5.26 5.26 0 0 0 12.51.06C11.28 0 10.07 0 8.85 0S6.42 0 5.2.06a5.26 5.26 0 0 0-3.71 1.43A5.26 5.26 0 0 0 .06 5.2C0 6.42 0 7.63 0 8.85s0 2.43.06 3.65a5.26 5.26 0 0 0 1.43 3.71 5.26 5.26 0 0 0 3.71 1.44c1.22.07 2.43.06 3.65.06s2.43 0 3.65-.06a5.26 5.26 0 0 0 3.71-1.43 5.26 5.26 0 0 0 1.43-3.71c.07-1.22.06-2.43.06-3.65s.01-2.44-.05-3.66zm-8.8 8.65a5 5 0 1 1 5-5 5 5 0 0 1-5 5zM14.73 4a1.06 1.06 0 1 1 1.06-1 1.06 1.06 0 0 1-1.06 1z"/></g></g></svg>